<svg xmlns="http://www.w3.org/2000/svg" viewBox="0 0 127.8 31.5"><path fill="#009CDE" d="M98 7h-7l-1 1-2 18h4l1-5 1-1h2c5 0 8-2 8-7V9l-6-2zm1 7c0 2-2 2-4 2h-1l1-5h1l3 1v2z"/><path fill="#003087" d="M48 7h-7l-1 1-3 18h5l1-5 1-1h2c5 0 8-2 8-7 1-2 0-3-1-4s-2-2-5-2zm1 7c0 2-2 2-4 2h-1l1-5h1l3 1v2zM69 13h-3l-1 1v1c-1-2-2-2-4-2-4 0-7 3-8 7l2 5 4 2c3 0 5-2 5-2l-1 1h5l2-12-1-1zm-4 7c-1 2-2 3-4 3l-2-1-1-2c0-2 2-3 4-3l2 1 1 2z"/><path fill="#009CDE" d="M119 13h-3l-1 1v1c-1-2-2-2-4-2-4 0-7 3-7 7-1 2 0 4 1 5l4 2c3 0 5-2 5-2v1h4l2-12-1-1zm-4 7c-1 2-2 3-4 3l-2-1-1-2c0-2 2-3 4-3l2 1 1 2z"/><path fill="#003087" d="M87 13h-3l-1 1-5 7-2-7-1-1h-3v1l3 11-3 5v1h4l12-17-1-1z"/><path fill="#009CDE" d="M123 7l-3 19h5l3-18-1-1h-3-1z"/><g><path fill="#009CDE" d="M24 8c0-3 0-4-2-6l-7-2H5L4 1 0 27l1 1h6l-1 2 1 1h5l1-1 1-6v-1l2-1c5 0 9-2 10-7 1-3 0-5-1-6l-1-1"/><path fill="#012169" d="M24 8c0-3 0-4-2-6l-7-2H5L4 1 0 27l1 1h6l1-10 2-1h2c6 0 10-2 12-9"/><path fill="#003087" d="M10 8a1 1 0 011-1h8a16 16 0 014 0l1 1c0-3 0-4-2-6l-7-2H5L4 1 0 27l1 1h6l1-10 2-10z"/></g></svg>